<?xml version="1.0" encoding="UTF-8"?>
<!DOCTYPE svg PUBLIC "-//W3C//DTD SVG 1.1//EN" "http://www.w3.org/Graphics/SVG/1.1/DTD/svg11.dtd">
<!-- Creator: CorelDRAW -->
<svg xmlns="http://www.w3.org/2000/svg" xml:space="preserve" width="0.677441in" height="0.626906in" version="1.1" style="shape-rendering:geometricPrecision; text-rendering:geometricPrecision; image-rendering:optimizeQuality; fill-rule:evenodd; clip-rule:evenodd"
viewBox="0 0 70.33 65.08"
 xmlns:xlink="http://www.w3.org/1999/xlink"
 xmlns:xodm="http://www.corel.com/coreldraw/odm/2003">
 <defs>
  <style type="text/css">
   <![CDATA[
    .fil0 {fill:gray}
   ]]>
  </style>
 </defs>
 <g id="Layer_x0020_1">
  <metadata id="CorelCorpID_0Corel-Layer"/>
  <path class="fil0" d="M7.14 27.1c-2.32,0 -5.34,-0.38 -6.48,0.87 -1.51,1.66 -0.27,4.18 1.88,4.18l65.23 0c3.05,0 3.99,-5.09 -0.76,-5.06 -1.28,0.01 -2.56,0.01 -3.83,0.01l-5.12 -20.3c-1.51,-5.32 -6.81,-8.27 -12.45,-5.99 -1.43,0.58 -9.26,3.79 -10.15,3.79 -1.9,0 -5.49,-1.71 -7.35,-2.45 -1.98,-0.79 -4.95,-2.15 -7.04,-2.15 -4.42,0 -7.61,2.86 -8.75,6.57 -0.39,1.26 -0.72,2.82 -1.05,4.15l-4.13 16.38zm-2.3 24.01c0,0.76 0.22,2.24 0.37,3 0.38,1.89 1.59,4.39 2.88,5.84 0.36,0.4 0.48,0.63 0.84,1l1.94 1.58c9.29,6.73 21.83,-0.95 21.83,-10.65 0,-3.44 -0.44,-3.77 -0.46,-4.75 1.77,-0.85 4.04,-0.85 5.82,0 -0.16,1.97 -0.46,1.38 -0.46,4.75 0,1.9 0.75,4.08 1.37,5.36 3.62,7.39 13.36,10.29 20.37,5.36 7.27,-5.11 8.08,-15.16 2.11,-21.25 -4.2,-4.28 -11.33,-5.55 -16.65,-2.48 -0.78,0.45 -1.69,1 -2.34,1.64 -0.48,0.46 -1.8,1.63 -1.95,2.18 -1.73,-0.4 -2.11,-1.22 -5.67,-1.22 -2.53,0 -3.66,0.9 -5.05,1.22 -0.31,-1.15 -3.25,-3.22 -4.29,-3.82 -4.58,-2.65 -10.22,-2.09 -14.63,0.82l-3.46 3.43c-1.55,2.33 -2.57,5.11 -2.57,7.99z"/>
 </g>
</svg>
