<?xml version="1.0" encoding="UTF-8"?>
<!DOCTYPE svg PUBLIC "-//W3C//DTD SVG 1.1//EN" "http://www.w3.org/Graphics/SVG/1.1/DTD/svg11.dtd">
<!-- Creator: CorelDRAW -->
<svg xmlns="http://www.w3.org/2000/svg" xml:space="preserve" width="0.664976in" height="0.762063in" version="1.1" style="shape-rendering:geometricPrecision; text-rendering:geometricPrecision; image-rendering:optimizeQuality; fill-rule:evenodd; clip-rule:evenodd"
viewBox="0 0 67.89 77.8"
 xmlns:xlink="http://www.w3.org/1999/xlink"
 xmlns:xodm="http://www.corel.com/coreldraw/odm/2003">
 <defs>
  <style type="text/css">
   <![CDATA[
    .fil0 {fill:#8BA278}
   ]]>
  </style>
 </defs>
 <g id="Layer_x0020_1">
  <metadata id="CorelCorpID_0Corel-Layer"/>
  <path class="fil0" d="M-0 18.22l0 22.28c0,9.98 6.77,19.55 13.92,25.86l4.94 3.9c2.03,1.52 5.89,4.01 8.12,5.14 0.54,0.27 0.89,0.41 1.4,0.72 2.3,1.38 3.34,1.69 6.09,1.69 2.57,0 4.61,-1.5 6.43,-2.41l5.53 -3.31c4.22,-2.82 5.38,-3.8 8.6,-6.78 0.48,-0.44 0.75,-0.56 1.24,-1.06 6.1,-6.12 11.62,-14.81 11.62,-23.74l0 -22.28c0,-3.39 -2.46,-6.96 -4.52,-8.38 -2.37,-1.64 -6.44,-2.72 -9.38,-3.7l-14.67 -4.95c-4.84,-1.63 -5.99,-1.52 -10.56,0l-19.62 6.54c-1.95,0.65 -2.96,1 -4.5,2.04 -2.13,1.44 -4.63,4.94 -4.63,8.46z"/>
 </g>
</svg>
