<?xml version="1.0" encoding="UTF-8"?>
<!DOCTYPE svg PUBLIC "-//W3C//DTD SVG 1.1//EN" "http://www.w3.org/Graphics/SVG/1.1/DTD/svg11.dtd">
<!-- Creator: CorelDRAW -->
<svg xmlns="http://www.w3.org/2000/svg" xml:space="preserve" width="1.18889in" height="1.19006in" version="1.1" style="shape-rendering:geometricPrecision; text-rendering:geometricPrecision; image-rendering:optimizeQuality; fill-rule:evenodd; clip-rule:evenodd"
viewBox="0 0 200.85 201.05"
 xmlns:xlink="http://www.w3.org/1999/xlink"
 xmlns:xodm="http://www.corel.com/coreldraw/odm/2003">
 <defs>
  <style type="text/css">
   <![CDATA[
    .fil0 {fill:gray}
   ]]>
  </style>
 </defs>
 <g id="Layer_x0020_1">
  <metadata id="CorelCorpID_0Corel-Layer"/>
  <path class="fil0" d="M-0 92.01l0 64.29c0,25.87 17.27,44.58 42.71,44.58 8.37,0 20.58,0.98 27.07,-2.49 12.65,-6.76 10.94,-19.48 10.94,-32.7 0,-9.03 -1.2,-21.04 1.86,-27.23 8.5,-17.19 28.35,-15.24 35.38,-0.62 5.92,12.32 -2.06,41.48 5.36,53.3 7.55,12.02 20.61,9.75 34.83,9.75 25.42,0 42.7,-18.7 42.7,-44.58l0 -64.29c0,-12.87 -3.1,-22.13 -10.65,-31.12 -3.29,-3.92 -4.89,-4.98 -9.33,-8.5l-46.25 -38.22c-2.23,-1.82 -4.16,-3.57 -6.5,-5.23 -7.4,-5.24 -18.53,-8.95 -27.69,-8.95l-10.43 1.33c-3.41,0.78 -6.22,1.72 -9.13,3.07 -6.4,2.98 -9.34,5.32 -14.38,9.56 -7.62,6.42 -19.58,15.7 -26.48,21.85l-13.11 10.82c-2.32,1.87 -4.13,3.43 -6.39,5.34 -2.3,1.94 -4.31,3.67 -6.7,5.5 -3.64,2.8 -7.91,9.77 -9.9,14.04 -2.64,5.67 -3.91,12.38 -3.91,20.49z"/>
 </g>
</svg>
