<?xml version="1.0" encoding="UTF-8"?>
<!DOCTYPE svg PUBLIC "-//W3C//DTD SVG 1.1//EN" "http://www.w3.org/Graphics/SVG/1.1/DTD/svg11.dtd">
<!-- Creator: CorelDRAW -->
<svg xmlns="http://www.w3.org/2000/svg" xml:space="preserve" width="0.666677in" height="0.559063in" version="1.1" style="shape-rendering:geometricPrecision; text-rendering:geometricPrecision; image-rendering:optimizeQuality; fill-rule:evenodd; clip-rule:evenodd"
viewBox="0 0 158.73 133.11"
 xmlns:xlink="http://www.w3.org/1999/xlink"
 xmlns:xodm="http://www.corel.com/coreldraw/odm/2003">
 <defs>
  <style type="text/css">
   <![CDATA[
    .fil0 {fill:#FFFFFD}
   ]]>
  </style>
 </defs>
 <g id="Layer_x0020_1">
  <metadata id="CorelCorpID_0Corel-Layer"/>
  <path class="fil0" d="M15.66 111.4c0,-1.97 1.11,-3.5 2.03,-4.73l20.04 -27.66c0.95,-1.35 1.93,-2.6 2.85,-3.91 0.95,-1.35 1.92,-2.6 2.85,-3.91l14.18 -19.63c2.27,-2.83 3.3,-2.79 6.11,-2.79 3.03,0 7.09,6.42 8.83,8.97 5.59,8.21 13.2,17.75 18.64,25.84 3.29,4.89 7.95,5.54 11.6,1.06 3.78,-4.63 10,-18.14 17.01,-9.03l21.5 29.75c1.37,1.94 2.84,3.09 2.84,6.05 0,1.92 -1.76,3.2 -3.56,3.2l-120.65 0c-2.06,0 -4.27,-1.31 -4.27,-3.2zm93.6 -77.59c0,-8.35 7.12,-15.66 15.66,-15.66 8.61,0 15.66,6.65 15.66,16.02 0,12.85 -16.24,20.96 -26.61,10.59 -2.86,-2.86 -4.71,-6.51 -4.71,-10.95zm-109.26 -24.56l0 114.6c0,4.69 4.04,9.25 8.54,9.25l141.65 0c4.51,0 8.54,-4.56 8.54,-9.25l0 -114.6c0,-4.69 -4.04,-9.25 -8.54,-9.25l-141.65 0c-4.51,0 -8.54,4.56 -8.54,9.25z"/>
 </g>
</svg>
