<?xml version="1.0" encoding="UTF-8"?>
<!DOCTYPE svg PUBLIC "-//W3C//DTD SVG 1.1//EN" "http://www.w3.org/Graphics/SVG/1.1/DTD/svg11.dtd">
<!-- Creator: CorelDRAW -->
<svg xmlns="http://www.w3.org/2000/svg" xml:space="preserve" width="0.666661in" height="0.494106in" version="1.1" style="shape-rendering:geometricPrecision; text-rendering:geometricPrecision; image-rendering:optimizeQuality; fill-rule:evenodd; clip-rule:evenodd"
viewBox="0 0 119.05 88.23"
 xmlns:xlink="http://www.w3.org/1999/xlink"
 xmlns:xodm="http://www.corel.com/coreldraw/odm/2003">
 <defs>
  <style type="text/css">
   <![CDATA[
    .fil0 {fill:#FFFFFD}
   ]]>
  </style>
 </defs>
 <g id="Layer_x0020_1">
  <metadata id="CorelCorpID_0Corel-Layer"/>
  <g id="_105553538105696">
   <path class="fil0" d="M13.04 24.33c-3.58,0 -6.62,-0.34 -8.96,1.07 -5.06,3.05 -5.37,9.76 -1.12,13.17 1.55,1.24 3.44,1.92 6.16,1.92l100.87 0c5.04,0 9.06,-3.33 9.06,-7.1 0,-3.37 -0.39,-5.8 -4.01,-7.99 -2.35,-1.41 -5.39,-1.07 -8.96,-1.07l-2.79 -4.8c-7.35,-11.06 -21.37,-19.44 -34.67,-19.44 -6.69,0 -18.94,-0.5 -24.91,0.79 -0.94,0.2 -2.04,0.47 -3.14,0.78 -5.64,1.59 -13.37,5.48 -17.43,9.5l-2.11 2.05c-0.04,0.04 -0.09,0.09 -0.12,0.12 -2.79,2.91 -4.35,4.89 -6.5,8.44 -0.57,0.94 -0.88,1.65 -1.36,2.56z"/>
   <path class="fil0" d="M81.83 73.05c-4.1,0 -12.73,-3.96 -12.73,-7.35 0,-3.22 5.71,-5.86 8.41,-6.77 5.95,-2 10.24,0.21 15.05,3.38 1.05,0.7 1.81,1.5 1.85,3.17 0.12,4.21 -8.88,7.56 -12.58,7.56zm-32.07 -7.83c0,2.71 -2.28,4.19 -4.81,5.47 -5.2,2.63 -8.43,3.15 -13.84,0.94 -2.44,-1 -8.5,-4.1 -6.23,-7.78 1.7,-2.76 9.44,-6.87 16.13,-5.04 2.35,0.64 5.45,2.43 7.33,3.93 0.65,0.51 1.43,1.41 1.43,2.49zm-40.64 -12.73c0,13.34 -1.09,18.09 7.17,28.09 1.18,1.42 5.34,4.25 7.11,5.13 4.29,2.13 7.31,2.53 12.16,2.53 11.7,0 18.33,-12.39 36.07,-3.51 5.79,2.9 7.41,3.51 14.36,3.51 4.77,0 9.98,-2.27 13.5,-4.86 6.25,-4.58 10.49,-12.04 10.49,-20.11l0 -10.77c0,-2.8 -2.59,-5.39 -5.39,-5.39l-90.1 0c-2.8,0 -5.39,2.59 -5.39,5.39z"/>
  </g>
 </g>
</svg>
