<?xml version="1.0" encoding="UTF-8"?>
<!DOCTYPE svg PUBLIC "-//W3C//DTD SVG 1.1//EN" "http://www.w3.org/Graphics/SVG/1.1/DTD/svg11.dtd">
<!-- Creator: CorelDRAW -->
<svg xmlns="http://www.w3.org/2000/svg" xml:space="preserve" width="0.720295in" height="0.472472in" version="1.1" style="shape-rendering:geometricPrecision; text-rendering:geometricPrecision; image-rendering:optimizeQuality; fill-rule:evenodd; clip-rule:evenodd"
viewBox="0 0 78.99 51.81"
 xmlns:xlink="http://www.w3.org/1999/xlink"
 xmlns:xodm="http://www.corel.com/coreldraw/odm/2003">
 <defs>
  <style type="text/css">
   <![CDATA[
    .fil0 {fill:gray}
   ]]>
  </style>
 </defs>
 <g id="Layer_x0020_1">
  <metadata id="CorelCorpID_0Corel-Layer"/>
  <path class="fil0" d="M46.83 36.2c0.37,1.59 0.69,1.19 0.69,3.6 0,4.27 -3.55,7.89 -8.23,7.89 -4.31,0 -7.89,-3.53 -7.89,-8.4 0,-5.03 5.11,-8.72 10.08,-7.51 0.54,0.13 0.88,0.35 1.41,0.48 0.55,-0.83 15.51,-15.75 16.17,-16.08 2.61,-1.29 4.99,1.4 3.89,3.72 -0.36,0.77 -1.54,1.8 -2.19,2.45 -1.78,1.78 -13.07,13.27 -13.94,13.85zm3.26 -21.61c-1.54,0 -1.26,-0.04 -2.72,-0.54 -0.66,-0.22 -1.33,-0.41 -2.15,-0.59 -10.13,-2.25 -20.78,1.74 -26.86,9.7 -0.28,0.36 -0.51,0.68 -0.81,1.08 -5.35,7.1 -4.58,15.46 -5.1,16.52 -1.32,2.72 -5.41,1.88 -5.41,-1.13 0,-5.32 1.15,-9.61 2.92,-13.55 4.8,-10.71 16.47,-18.87 28.47,-18.87 3.89,0 9.05,0.46 12.4,2.01 2.87,1.32 1.58,5.37 -0.74,5.37zm-50.08 23.33c0,4.74 -0.12,5.69 0.93,10.57 0.51,2.37 1.94,3.33 4.74,3.33l67.57 0c2.71,0 4.18,-0.91 4.7,-3.19 2.69,-11.67 0.04,-22.58 -6.45,-32.11 -3.69,-5.42 -10.4,-10.51 -16.09,-13.07 -3.3,-1.48 -9.71,-3.3 -13.54,-3.26 -1.1,0.01 -1.55,-0.18 -2.4,-0.18 -1.9,0 -6.82,0.61 -8.58,1.04 -7.15,1.75 -13.61,4.95 -18.82,10.17 -5.37,5.38 -8.6,10.5 -10.78,18.21 -0.65,2.3 -1.27,5.68 -1.27,8.5z"/>
 </g>
</svg>
