<?xml version="1.0" encoding="UTF-8"?>
<!DOCTYPE svg PUBLIC "-//W3C//DTD SVG 1.1//EN" "http://www.w3.org/Graphics/SVG/1.1/DTD/svg11.dtd">
<!-- Creator: CorelDRAW -->
<svg xmlns="http://www.w3.org/2000/svg" xml:space="preserve" width="0.666669in" height="0.453126in" version="1.1" style="shape-rendering:geometricPrecision; text-rendering:geometricPrecision; image-rendering:optimizeQuality; fill-rule:evenodd; clip-rule:evenodd"
viewBox="0 0 952.4 647.33"
 xmlns:xlink="http://www.w3.org/1999/xlink"
 xmlns:xodm="http://www.corel.com/coreldraw/odm/2003">
 <defs>
  <style type="text/css">
   <![CDATA[
    .fil0 {fill:#FFFFFD}
   ]]>
  </style>
 </defs>
 <g id="Layer_x0020_1">
  <metadata id="CorelCorpID_0Corel-Layer"/>
  <path class="fil0" d="M327.38 158.11c-19.51,-1.63 -6.49,-5.58 -52.08,-5.58 -23.57,0 -48.41,11.18 -65.88,23.4 -17.32,12.1 -33.29,29.38 -42.52,48.63 -10.8,22.53 -9.3,25.28 -14.36,47.02 -34.39,0.77 -82.13,34.65 -105.59,59.97 -27.37,29.54 -46.94,77.39 -46.94,118.61 0,34.14 3.11,58.59 17.96,88.06 8.27,16.42 14.22,27.36 26.2,40.77 21.72,24.33 33.93,34.79 64.95,50.38 18.49,9.29 46.24,17.96 73.18,17.96l587.82 0c25.52,0 54.44,-8.54 71.95,-17.33 43.13,-21.66 69.98,-47.25 91.76,-90.54 11.1,-22.07 17.21,-46.34 18.59,-70.92l0 -21.51c-2.02,-36.66 -14.43,-72.73 -36.4,-101.84 -25.05,-33.19 -42.62,-44.22 -77.07,-62.45 0,-46.14 -3.89,-71.68 -18.81,-113.26 -6,-16.72 -13.68,-29.84 -22.45,-44.51 -4.85,-8.11 -8.12,-12.23 -13.75,-19.74 -43.71,-58.34 -125.11,-105.23 -196.11,-105.23l-27.9 0c-55.84,0 -112.56,26.7 -145.11,50.21 -4.27,3.08 -8.91,7.06 -13.43,10.75 -16.37,13.37 -22,19.54 -36.2,36.34 -19.06,22.55 -24.65,36 -37.78,60.81z"/>
 </g>
</svg>
