<?xml version="1.0" encoding="UTF-8"?>
<!DOCTYPE svg PUBLIC "-//W3C//DTD SVG 1.1//EN" "http://www.w3.org/Graphics/SVG/1.1/DTD/svg11.dtd">
<!-- Creator: CorelDRAW -->
<svg xmlns="http://www.w3.org/2000/svg" xml:space="preserve" width="0.532055in" height="0.666665in" version="1.1" style="shape-rendering:geometricPrecision; text-rendering:geometricPrecision; image-rendering:optimizeQuality; fill-rule:evenodd; clip-rule:evenodd"
viewBox="0 0 73.19 91.7"
 xmlns:xlink="http://www.w3.org/1999/xlink"
 xmlns:xodm="http://www.corel.com/coreldraw/odm/2003">
 <defs>
  <style type="text/css">
   <![CDATA[
    .fil0 {fill:#FFFFFD}
   ]]>
  </style>
 </defs>
 <g id="Layer_x0020_1">
  <metadata id="CorelCorpID_0Corel-Layer"/>
  <path class="fil0" d="M18.96 64.81c0,-1.7 1.45,-3.53 3.09,-3.53l14.99 0c1.05,0 2.33,1.03 2.71,1.91 1.17,2.66 -0.92,4.92 -3.16,4.92l-14.11 0c-2.36,0 -3.53,-2.2 -3.53,-3.31zm0 -14.11c0,-1.7 1.45,-3.53 3.09,-3.53l29.1 0c1.05,0 2.33,1.04 2.71,1.92 1.17,2.66 -0.92,4.92 -3.16,4.92l-28.22 0c-2.36,0 -3.53,-2.2 -3.53,-3.31zm0 -14.11c0,-1.7 1.45,-3.53 3.09,-3.53l29.1 0c3.75,0 4.4,6.83 -0.44,6.83l-28.22 0c-2.36,0 -3.53,-2.2 -3.53,-3.31zm-18.96 -27.11l0 72.75c0,2.95 0.66,4.91 2.05,6.55 1.21,1.44 3.34,2.93 5.89,2.93l57.32 0c4.53,0 7.94,-4.03 7.94,-9.26l0 -56.87c0,-4.06 -1.23,-5.99 -3.8,-8.54l-12.93 -12.86c-1.92,-1.93 -3.98,-4.17 -7.07,-4.17l-41.88 0c-2.07,0 -4.44,1.72 -5.45,2.93 -1.38,1.65 -2.05,3.6 -2.05,6.55z"/>
 </g>
</svg>
